<mxfile host="app.diagrams.net" modified="2023-06-13T11:22:29.271Z" agent="Mozilla/5.0 (Windows NT 10.0; Win64; x64) AppleWebKit/537.36 (KHTML, like Gecko) Chrome/114.0.0.0 Safari/537.36" etag="dX6kEBUd2b3-kmXGV-wE" version="21.3.7" type="device">
  <diagram name="Page-1" id="_0K8BKs_rwGNKz1vfVSB">
    <mxGraphModel dx="1050" dy="591" grid="1" gridSize="10" guides="1" tooltips="1" connect="1" arrows="1" fold="1" page="1" pageScale="1" pageWidth="850" pageHeight="1100" math="0" shadow="0">
      <root>
        <mxCell id="0" />
        <mxCell id="1" parent="0" />
        <mxCell id="spZ7rqqCDONqRJ3dohYk-1" value="AWS Lambda&lt;br&gt;" style="outlineConnect=0;dashed=0;verticalLabelPosition=bottom;verticalAlign=top;align=center;html=1;shape=mxgraph.aws3.lambda_function;fillColor=#F58534;gradientColor=none;" vertex="1" parent="1">
          <mxGeometry x="400" y="80" width="69" height="72" as="geometry" />
        </mxCell>
        <mxCell id="spZ7rqqCDONqRJ3dohYk-2" value="AWS S3&lt;br&gt;" style="sketch=0;points=[[0,0,0],[0.25,0,0],[0.5,0,0],[0.75,0,0],[1,0,0],[0,1,0],[0.25,1,0],[0.5,1,0],[0.75,1,0],[1,1,0],[0,0.25,0],[0,0.5,0],[0,0.75,0],[1,0.25,0],[1,0.5,0],[1,0.75,0]];outlineConnect=0;fontColor=#232F3E;gradientColor=#60A337;gradientDirection=north;fillColor=#277116;strokeColor=#ffffff;dashed=0;verticalLabelPosition=bottom;verticalAlign=top;align=center;html=1;fontSize=12;fontStyle=0;aspect=fixed;shape=mxgraph.aws4.resourceIcon;resIcon=mxgraph.aws4.s3;" vertex="1" parent="1">
          <mxGeometry x="240" y="80" width="78" height="78" as="geometry" />
        </mxCell>
        <mxCell id="spZ7rqqCDONqRJ3dohYk-9" style="edgeStyle=orthogonalEdgeStyle;rounded=0;orthogonalLoop=1;jettySize=auto;html=1;" edge="1" parent="1" source="spZ7rqqCDONqRJ3dohYk-3" target="spZ7rqqCDONqRJ3dohYk-5">
          <mxGeometry relative="1" as="geometry" />
        </mxCell>
        <mxCell id="spZ7rqqCDONqRJ3dohYk-10" value="Upload image" style="edgeLabel;html=1;align=center;verticalAlign=middle;resizable=0;points=[];" vertex="1" connectable="0" parent="spZ7rqqCDONqRJ3dohYk-9">
          <mxGeometry x="-0.2154" y="-4" relative="1" as="geometry">
            <mxPoint x="7" y="18" as="offset" />
          </mxGeometry>
        </mxCell>
        <mxCell id="spZ7rqqCDONqRJ3dohYk-3" value="Users" style="outlineConnect=0;dashed=0;verticalLabelPosition=bottom;verticalAlign=top;align=center;html=1;shape=mxgraph.aws3.users;fillColor=#D2D3D3;gradientColor=none;" vertex="1" parent="1">
          <mxGeometry x="80" y="367" width="66" height="63" as="geometry" />
        </mxCell>
        <mxCell id="spZ7rqqCDONqRJ3dohYk-4" value="Log" style="sketch=0;outlineConnect=0;fontColor=#232F3E;gradientColor=none;fillColor=#B0084D;strokeColor=none;dashed=0;verticalLabelPosition=bottom;verticalAlign=top;align=center;html=1;fontSize=12;fontStyle=0;aspect=fixed;pointerEvents=1;shape=mxgraph.aws4.logs;" vertex="1" parent="1">
          <mxGeometry x="560" y="369.5" width="78" height="58" as="geometry" />
        </mxCell>
        <mxCell id="spZ7rqqCDONqRJ3dohYk-14" style="edgeStyle=orthogonalEdgeStyle;rounded=0;orthogonalLoop=1;jettySize=auto;html=1;" edge="1" parent="1" source="spZ7rqqCDONqRJ3dohYk-5" target="spZ7rqqCDONqRJ3dohYk-6">
          <mxGeometry relative="1" as="geometry" />
        </mxCell>
        <mxCell id="spZ7rqqCDONqRJ3dohYk-15" value="Trigger" style="edgeLabel;html=1;align=center;verticalAlign=middle;resizable=0;points=[];" vertex="1" connectable="0" parent="spZ7rqqCDONqRJ3dohYk-14">
          <mxGeometry x="-0.2968" y="-1" relative="1" as="geometry">
            <mxPoint x="6" y="-19" as="offset" />
          </mxGeometry>
        </mxCell>
        <mxCell id="spZ7rqqCDONqRJ3dohYk-5" value="Bucket" style="sketch=0;outlineConnect=0;fontColor=#232F3E;gradientColor=none;fillColor=#3F8624;strokeColor=none;dashed=0;verticalLabelPosition=bottom;verticalAlign=top;align=center;html=1;fontSize=12;fontStyle=0;aspect=fixed;pointerEvents=1;shape=mxgraph.aws4.bucket;" vertex="1" parent="1">
          <mxGeometry x="241.5" y="359.5" width="75" height="78" as="geometry" />
        </mxCell>
        <mxCell id="spZ7rqqCDONqRJ3dohYk-16" style="edgeStyle=orthogonalEdgeStyle;rounded=0;orthogonalLoop=1;jettySize=auto;html=1;" edge="1" parent="1" source="spZ7rqqCDONqRJ3dohYk-6" target="spZ7rqqCDONqRJ3dohYk-4">
          <mxGeometry relative="1" as="geometry" />
        </mxCell>
        <mxCell id="spZ7rqqCDONqRJ3dohYk-19" style="edgeStyle=orthogonalEdgeStyle;rounded=0;orthogonalLoop=1;jettySize=auto;html=1;" edge="1" parent="1" source="spZ7rqqCDONqRJ3dohYk-6" target="spZ7rqqCDONqRJ3dohYk-5">
          <mxGeometry relative="1" as="geometry">
            <Array as="points">
              <mxPoint x="435" y="330" />
              <mxPoint x="279" y="330" />
            </Array>
          </mxGeometry>
        </mxCell>
        <mxCell id="spZ7rqqCDONqRJ3dohYk-20" value="Edit and upload image" style="edgeLabel;html=1;align=center;verticalAlign=middle;resizable=0;points=[];" vertex="1" connectable="0" parent="spZ7rqqCDONqRJ3dohYk-19">
          <mxGeometry x="0.2843" y="-1" relative="1" as="geometry">
            <mxPoint x="24" y="-19" as="offset" />
          </mxGeometry>
        </mxCell>
        <mxCell id="spZ7rqqCDONqRJ3dohYk-6" value="Function&lt;br&gt;" style="sketch=0;outlineConnect=0;fontColor=#232F3E;gradientColor=none;fillColor=#D45B07;strokeColor=none;dashed=0;verticalLabelPosition=bottom;verticalAlign=top;align=center;html=1;fontSize=12;fontStyle=0;aspect=fixed;pointerEvents=1;shape=mxgraph.aws4.lambda_function;" vertex="1" parent="1">
          <mxGeometry x="397" y="361" width="75" height="75" as="geometry" />
        </mxCell>
        <mxCell id="spZ7rqqCDONqRJ3dohYk-7" value="AWS CloudWatch" style="sketch=0;points=[[0,0,0],[0.25,0,0],[0.5,0,0],[0.75,0,0],[1,0,0],[0,1,0],[0.25,1,0],[0.5,1,0],[0.75,1,0],[1,1,0],[0,0.25,0],[0,0.5,0],[0,0.75,0],[1,0.25,0],[1,0.5,0],[1,0.75,0]];points=[[0,0,0],[0.25,0,0],[0.5,0,0],[0.75,0,0],[1,0,0],[0,1,0],[0.25,1,0],[0.5,1,0],[0.75,1,0],[1,1,0],[0,0.25,0],[0,0.5,0],[0,0.75,0],[1,0.25,0],[1,0.5,0],[1,0.75,0]];outlineConnect=0;fontColor=#232F3E;gradientColor=#F34482;gradientDirection=north;fillColor=#BC1356;strokeColor=#ffffff;dashed=0;verticalLabelPosition=bottom;verticalAlign=top;align=center;html=1;fontSize=12;fontStyle=0;aspect=fixed;shape=mxgraph.aws4.resourceIcon;resIcon=mxgraph.aws4.cloudwatch_2;" vertex="1" parent="1">
          <mxGeometry x="560" y="80" width="78" height="78" as="geometry" />
        </mxCell>
        <mxCell id="spZ7rqqCDONqRJ3dohYk-8" value="Policy / Role" style="outlineConnect=0;dashed=0;verticalLabelPosition=bottom;verticalAlign=top;align=center;html=1;shape=mxgraph.aws3.policy;fillColor=#5294CF;gradientColor=none;" vertex="1" parent="1">
          <mxGeometry x="413.5" y="190" width="55.5" height="90" as="geometry" />
        </mxCell>
        <mxCell id="spZ7rqqCDONqRJ3dohYk-11" value="" style="line;strokeWidth=1;fillColor=none;align=left;verticalAlign=middle;spacingTop=-1;spacingLeft=3;spacingRight=3;rotatable=0;labelPosition=right;points=[];portConstraint=eastwest;strokeColor=inherit;flipH=1;flipV=1;direction=south;" vertex="1" parent="1">
          <mxGeometry x="360" y="80" width="8" height="400" as="geometry" />
        </mxCell>
        <mxCell id="spZ7rqqCDONqRJ3dohYk-12" value="" style="line;strokeWidth=1;fillColor=none;align=left;verticalAlign=middle;spacingTop=-1;spacingLeft=3;spacingRight=3;rotatable=0;labelPosition=right;points=[];portConstraint=eastwest;strokeColor=inherit;flipH=1;flipV=1;direction=south;" vertex="1" parent="1">
          <mxGeometry x="520" y="80" width="8" height="400" as="geometry" />
        </mxCell>
        <mxCell id="spZ7rqqCDONqRJ3dohYk-13" value="" style="line;strokeWidth=1;fillColor=none;align=left;verticalAlign=middle;spacingTop=-1;spacingLeft=3;spacingRight=3;rotatable=0;labelPosition=right;points=[];portConstraint=eastwest;strokeColor=inherit;flipH=1;flipV=1;direction=south;" vertex="1" parent="1">
          <mxGeometry x="197" y="80" width="8" height="400" as="geometry" />
        </mxCell>
        <mxCell id="spZ7rqqCDONqRJ3dohYk-18" value="Write log" style="edgeLabel;html=1;align=center;verticalAlign=middle;resizable=0;points=[];" vertex="1" connectable="0" parent="1">
          <mxGeometry x="520.0033608734138" y="380" as="geometry" />
        </mxCell>
      </root>
    </mxGraphModel>
  </diagram>
</mxfile>
